#!OML:ASF F:\VICON\USERDATA\INSTALL\Justin_Nancy\Justin_Nancy.ASF
:FULLY-SPECIFIED
:DEGREES
32
root 9.90169 17.2728 -18.3236 -2.05903 -9.13179 3.58017
lowerback 7.03772 1.28484 -4.68185
upperback -0.630564 1.36339 1.11149
thorax -4.7487 0.810363 3.64048
lowerneck -14.1693 -4.28107 -9.40344
upperneck 22.9445 -5.4623 6.95211
head 10.0961 -2.5792 3.32085
rclavicle -4.238e-014 4.77083e-015
rhumerus -28.0325 -9.04498 -79.6688
rradius 36.5646
rwrist 3.58205
rhand -17.3105 9.06823
rfingers 7.12502
rthumb 8.93575 -20.7225
lclavicle -4.238e-014 4.77083e-015
lhumerus -42.9185 25.8783 71.8234
lradius 15.8991
lwrist -19.8702
lhand -12.2111 28.9649
lfingers 7.12502
lthumb 13.8536 58.4835
rfemur -6.23929 -0.29578 18.9313
rtibia 67.5659
rfoot 11.1753 2.45551
rtoes 8.56302
lfemur -21.641 4.56031 -26.2145
ltibia 33.0519
lfoot -6.95169 -0.279457
ltoes 2.0869
33
root 9.86405 17.2867 -18.092 -2.04516 -8.60601 3.9675
lowerback 6.84948 0.981835 -5.12086
upperback -0.578397 0.930999 1.07502
thorax -4.55229 0.60073 3.90171
lowerneck -14.0432 -4.08144 -9.68199
upperneck 22.9698 -5.16218 7.1033
head 10.0646 -2.4512 3.46523
rclavicle 3.516e-015 0
rhumerus -28.194 -9.19169 -79.6571
rradius 35.7552
rwrist 4.49607
rhand -17.1516 8.74856
rfingers 7.12502
rthumb 9.08902 -21.0356
lclavicle 3.516e-015 0
lhumerus -42.3139 26.0171 72.0614
lradius 15.7424
lwrist -20.1741
lhand -12.5359 28.1786
lfingers 7.12502
lthumb 13.5405 57.7183
rfemur -8.1786 -1.12917 18.4626
rtibia 69.1466
rfoot 9.2294 0.654881
rtoes 8.69656
lfemur -20.5508 4.23361 -26.6201
ltibia 32.5602
lfoot -7.42302 -0.274068
ltoes 2.20455
34
root 9.82706 17.3179 -17.8679 -1.86114 -7.88486 4.22253
lowerback 6.69795 0.694045 -5.3813
upperback -0.592601 0.530649 1.00325
thorax -4.44106 0.404952 4.018
lowerneck -14.1258 -3.98587 -9.75171
upperneck 23.1151 -5.01655 7.13385
head 10.1211 -2.38608 3.5098
rclavicle 4.70871e-015 -1.27222e-014
rhumerus -28.465 -9.6465 -79.5873
rradius 34.9874
rwrist 5.38122
rhand -16.9405 8.90445
rfingers 7.12502
rthumb 9.29279 -20.8707
lclavicle 4.70871e-015 -1.27222e-014
lhumerus -41.4863 26.0215 72.3556
lradius 15.6493
lwrist -20.8805
lhand -12.3419 28.4551
lfingers 7.12502
lthumb 13.7275 57.9823
rfemur -10.1682 -2.12364 18.1512
rtibia 70.335
rfoot 7.29514 -0.944769
rtoes 8.40094
lfemur -19.6253 3.89059 -26.9231
ltibia 32.0844
lfoot -7.94227 -0.460746
ltoes 4.58999
35
root 9.80032 17.351 -17.6187 -1.8878 -8.06317 4.317
lowerback 6.88583 0.722455 -5.3624
upperback -0.817552 0.551652 0.940853
thorax -4.78449 0.428798 3.9389
lowerneck -14.0385 -3.99442 -9.60346
upperneck 23.4925 -5.03044 6.88069
head 10.231 -2.4127 3.39905
rclavicle 2.04328e-014 -1.59028e-015
rhumerus -29.509 -10.0041 -79.4455
rradius 34.6205
rwrist 6.13964
rhand -16.4609 9.24469
rfingers 7.12502
rthumb 9.75552 -20.5094
lclavicle 2.04328e-014 -1.59028e-015
lhumerus -41.068 24.9997 73.0384
lradius 15.8903
lwrist -20.5232
lhand -12.5924 28.7382
lfingers 7.12502
lthumb 13.486 58.2816
rfemur -11.8603 -2.1615 18.0725
rtibia 71.1991
rfoot 5.70926 -2.03321
rtoes 6.93551
lfemur -18.4078 4.16478 -26.9832
ltibia 31.6627
lfoot -8.68102 -0.367346
ltoes 2.2633
36
root 9.7694 17.3718 -17.3785 -2.02792 -7.88002 4.54918
lowerback 6.08449 0.630795 -5.51644
upperback -0.235002 0.475081 0.89307
thorax -3.71561 0.35012 3.98651
lowerneck -14.1586 -4.08596 -9.71685
upperneck 23.1822 -5.10266 6.88294
head 10.1533 -2.45047 3.40236
rclavicle -3.42904e-014 9.54166e-015
rhumerus -29.2199 -10.8593 -79.3571
rradius 34.0603
rwrist 7.48815
rhand -15.749 8.91939
rfingers 7.12502
rthumb 10.4423 -20.8013
lclavicle -3.42904e-014 9.54166e-015
lhumerus -39.4282 24.9251 73.8703
lradius 15.7731
lwrist -20.7579
lhand -13.3955 28.2556
lfingers 7.12502
lthumb 12.7119 57.8487
rfemur -13.3421 -2.56905 17.8259
rtibia 71.7958
rfoot 4.55736 -2.85168
rtoes 5.48911
lfemur -17.1116 4.09697 -27.2067
ltibia 31.2301
lfoot -9.35033 -0.13734
ltoes 2.1952
37
root 9.73324 17.3868 -17.1489 -2.17142 -7.66119 4.7408
lowerback 6.07879 0.548833 -5.83215
upperback -0.0938043 0.349523 0.966663
thorax -3.55452 0.286139 4.25384
lowerneck -14.2867 -4.09081 -9.84684
upperneck 23.251 -5.04051 6.78107
head 10.1987 -2.44253 3.39594
rclavicle 5.09386e-015 -5.56597e-015
rhumerus -29.5844 -11.5431 -78.9774
rradius 33.626
rwrist 9.08979
rhand -15.2101 9.12613
rfingers 7.12502
rthumb 10.9621 -20.5677
lclavicle 5.09386e-015 -5.56597e-015
lhumerus -38.5459 24.8074 74.4909
lradius 15.8729
lwrist -20.8488
lhand -13.5213 28.4157
lfingers 7.12502
lthumb 12.5906 58.0163
rfemur -14.8083 -2.91341 17.6508
rtibia 72.1793
rfoot 3.31357 -3.56945
rtoes 6.28027
lfemur -15.8518 4.06604 -27.3779
ltibia 30.8559
lfoot -10.0226 0.0478705
ltoes 1.69555
